<?xml version="1.0" encoding="utf-8"?>
<!-- Generator: Adobe Illustrator 16.0.0, SVG Export Plug-In . SVG Version: 6.00 Build 0)  -->
<!DOCTYPE svg PUBLIC "-//W3C//DTD SVG 1.1//EN" "http://www.w3.org/Graphics/SVG/1.1/DTD/svg11.dtd">
<svg version="1.1" id="Layer_1" xmlns="http://www.w3.org/2000/svg" xmlns:xlink="http://www.w3.org/1999/xlink" x="0px" y="0px"
	 width="3354.111px" height="713.496px" viewBox="35 -95 3354.111 713.496" enable-background="new 35 -95 3354.111 713.496"
	 xml:space="preserve">
<g>
	<path d="M3370.257,381.767c-10.403,0-18.854,8.45-18.854,18.854c0,10.404,8.45,18.854,18.854,18.854s18.854-8.45,18.854-18.854
		C3389.111,390.217,3380.661,381.767,3370.257,381.767z M3370.257,416.485c-8.77,0-15.864-7.136-15.864-15.864
		c0-8.77,7.135-15.864,15.864-15.864c8.77,0,15.904,7.135,15.904,15.864C3386.162,409.35,3379.027,416.485,3370.257,416.485z
		 M3376.396,397.392c0-3.428-2.432-5.461-6.02-5.461h-6.019v17.18h2.949v-6.218h3.229l3.109,6.218h3.189l-3.429-6.855
		C3375.24,401.418,3376.396,399.743,3376.396,397.392z M3370.257,400.222h-2.909v-5.699h2.909c1.993,0,3.188,0.996,3.188,2.83
		C3373.446,399.226,3372.21,400.222,3370.257,400.222z M1098.508,190.956v-45.6h-69.914v271.288h69.914V253.976
		c0-29.457,18.894-43.927,48.351-43.927h38.266v-64.692h-32.686C1126.849,145.356,1104.607,158.709,1098.508,190.956z
		 M1250.615,38.053c-23.916,0-42.252,18.894-42.252,42.81c0,23.358,18.336,42.252,42.252,42.252s42.252-18.894,42.252-42.252
		C1292.866,56.946,1274.531,38.053,1250.615,38.053z M1215.737,416.645h69.756V145.356h-69.756V416.645z M1617.766,281
		c0,77.448-62.779,140.229-140.228,140.229c-31.251,0-59.591-10.244-82.312-27.544v102.601h-69.755V145.356h69.755v22.959
		c22.721-17.299,51.061-27.543,82.312-27.543C1554.987,140.772,1617.766,203.552,1617.766,281z M1547.573,281
		c0-42.052-34.12-76.173-76.173-76.173s-76.173,34.121-76.173,76.173c0,42.053,34.121,76.173,76.173,76.173
		C1513.453,357.173,1547.573,323.093,1547.573,281z M2830.153,257.204l-40.697-11.161c-26.786-6.976-37.189-15.187-37.189-29.337
		c0-13.792,14.668-23.438,35.635-23.438c19.97,0,35.635,13.074,35.635,29.815v1.554h64.294v-1.554
		c0-49.228-40.139-82.312-99.929-82.312c-59.192,0-102.202,33.044-102.202,78.604c0,35.436,23.478,62.142,64.454,73.223
		l38.983,10.643c29.616,8.211,40.617,17.3,40.617,33.603c0,17.18-15.904,28.739-39.581,28.739
		c-24.674,0-41.295-15.626-41.295-38.824v-1.555h-68.24v1.555c0,55.645,44.803,94.548,108.978,94.548
		c61.823,0,106.706-37.986,106.706-90.283C2896.32,305.354,2884.84,271.793,2830.153,257.204z M1865.218,145.356h69.755v271.288
		h-69.755v-22.96c-22.72,17.3-51.062,27.544-82.312,27.544c-77.447,0-140.228-62.78-140.228-140.229s62.78-140.228,140.228-140.228
		c31.25,0,59.592,10.244,82.312,27.543V145.356z M1865.218,281L1865.218,281c0-42.092-34.12-76.173-76.173-76.173
		s-76.173,34.121-76.173,76.173c0,42.053,34.12,76.173,76.173,76.173C1831.137,357.173,1865.218,323.093,1865.218,281z
		 M2186.85,48.815h69.755v367.869h-69.755v-22.96c-22.721,17.3-51.062,27.544-82.312,27.544
		c-77.448,0-140.229-62.78-140.229-140.229s62.78-140.228,140.229-140.228c31.25,0,59.591,10.244,82.312,27.543V48.815z
		 M2186.85,281c0-42.052-34.121-76.173-76.174-76.173c-42.052,0-76.172,34.121-76.172,76.173c0,42.053,34.08,76.173,76.172,76.173
		C2152.729,357.173,2186.85,323.093,2186.85,281z M2580.468,416.645h69.755V145.356h-69.755V416.645z M2615.346,38.053
		c-23.916,0-42.252,18.894-42.252,42.81c0,23.358,18.336,42.252,42.252,42.252s42.252-18.894,42.252-42.252
		C2657.598,56.946,2639.262,38.053,2615.346,38.053z M3197.823,281c0,77.448-62.78,140.229-140.229,140.229
		S2917.367,358.448,2917.367,281s62.779-140.228,140.228-140.228S3197.823,203.552,3197.823,281z M3133.767,281
		c0-42.052-34.12-76.173-76.173-76.173s-76.173,34.121-76.173,76.173c0,42.053,34.081,76.173,76.173,76.173
		C3099.647,357.173,3133.767,323.093,3133.767,281z M1062.793,48.815H795.212v62.222h99.053v305.607h69.516V111.037h99.053V48.815
		H1062.793z M2416.005,342.345l-62.062-196.988h-73.263l93.073,271.288h83.945l93.632-271.288h-73.264L2416.005,342.345z
		 M3300.024,190.956v-45.6h-69.915v271.288h69.915V253.976c0-29.457,18.894-43.927,48.35-43.927h38.266v-64.692h-32.685
		C3328.364,145.356,3306.163,158.709,3300.024,190.956z"/>
	<circle fill="#54E0AB" cx="391.749" cy="261.748" r="356.748"/>
	<path d="M612.095,192.152l43.049-46.836h-95.465c-47.792-32.646-105.51-51.659-167.931-51.659
		c-62.342,0-119.899,19.054-167.612,51.659h-95.704l43.049,46.836c-26.387,24.075-42.929,58.754-42.929,97.259
		c0,72.665,58.914,131.578,131.579,131.578c34.519,0,65.968-13.313,89.446-35.077l42.172,45.919l42.172-45.879
		c23.478,21.764,54.887,35.037,89.406,35.037c72.665,0,131.658-58.913,131.658-131.578
		C655.024,250.866,638.483,216.188,612.095,192.152z M260.17,378.458c-49.188,0-89.047-39.859-89.047-89.047
		s39.86-89.048,89.047-89.048c49.187,0,89.047,39.86,89.047,89.048S309.357,378.458,260.17,378.458z M391.788,286.82
		c0-58.595-42.61-108.898-98.853-130.383c30.413-12.716,63.776-19.771,98.813-19.771s68.439,7.055,98.853,19.771
		C434.399,177.962,391.788,228.226,391.788,286.82z M523.367,378.458c-49.188,0-89.048-39.859-89.048-89.047
		s39.86-89.048,89.048-89.048s89.047,39.86,89.047,89.048S572.554,378.458,523.367,378.458z M523.367,242.694
		c-25.79,0-46.677,20.887-46.677,46.677c0,25.789,20.887,46.676,46.677,46.676c25.789,0,46.676-20.887,46.676-46.676
		C570.042,263.621,549.156,242.694,523.367,242.694z M306.846,289.411c0,25.789-20.887,46.676-46.676,46.676
		s-46.676-20.887-46.676-46.676c0-25.79,20.887-46.677,46.676-46.677C285.959,242.694,306.846,263.621,306.846,289.411z"/>
</g>
</svg>
